<?xml version="1.0" encoding="utf-8"?>
<!-- Generator: Adobe Illustrator 18.1.1, SVG Export Plug-In . SVG Version: 6.00 Build 0)  -->
<svg version="1.1" id="Layer_1" xmlns="http://www.w3.org/2000/svg" xmlns:xlink="http://www.w3.org/1999/xlink" x="0px" y="0px"
	 viewBox="0 0 960 560" enable-background="new 0 0 960 560" xml:space="preserve">
<rect fill="#E9FFEB" width="960" height="560"/>
<g>
	<rect x="723.9" y="55.5" fill="#DDDDDD" width="216.1" height="26.7"/>
	<g>
		<g>
			<path fill="#911403" d="M754.4,48.7c-0.8-1-2.1-1.7-3.6-1.7h-0.3h-15h-0.3c-2.5,0-4.6,1.8-4.8,4.3l-1,0.7h-9.2
				c-2.6,0-4.3,3-4.3,6.1v6.6v0.1v0.5V70l-4,8.7c-1.1,2.4-0.1,5.2,2.3,6.3l3.1,1.4"/>
			<path fill="#911403" d="M714.6,85c0.8,1,2.1,2,3.6,2h0.3h15h0.3c2.5,0,4.6-2.3,4.8-4.8l1-1.2h9.2c2.6,0,4.3-2.6,4.3-5.7v-6.6
				v-0.1v-0.5v-4.7l4-8.7c1.1-2.4,0.1-5.2-2.4-6.3l-3.1-1.2"/>
		</g>
		<g>
			
				<ellipse transform="matrix(-0.7036 0.7106 -0.7106 -0.7036 1295.4175 -407.8947)" fill="#EF5C1B" cx="732.8" cy="66.2" rx="16.2" ry="6.5"/>
			<circle fill="#FFFF64" cx="736.1" cy="61.9" r="2.5"/>
			
				<ellipse transform="matrix(0.4869 0.8735 -0.8735 0.4869 436.625 -600.502)" fill="#FFFF64" cx="729.4" cy="71.4" rx="1.6" ry="4.3"/>
		</g>
	</g>
</g>
<g>
	<rect x="709.5" y="153.4" fill="#DDDDDD" width="228.5" height="26.7"/>
	<g>
		<g>
			<path fill="#FF9900" d="M742.3,149.7c-0.8-1-2-1.7-3.3-1.7h-0.3h-14.1h-0.3c-2.4,0-4.4,1.9-4.5,4.2l-0.9,0.8h-8.7
				c-2.5,0-5.2,2.6-5.2,5.6v6.2v0.1v0.5v4.4l-3.2,8.2c-1,2.3,0.2,4.9,2.5,5.9l3.1,1.3"/>
			<path fill="#FF9900" d="M704.8,183.5c0.8,1,2,1.5,3.3,1.5h0.3h14.1h0.3c2.4,0,4.4-1.9,4.5-4.2l0.9-0.8h8.7c2.5,0,5-2.3,5-5.3
				v-6.2v-0.1V168v-4.4l3.3-8.2c1-2.3-0.2-4.9-2.5-5.9l-3.1-1.4"/>
		</g>
		<g>
			
				<ellipse transform="matrix(-0.7036 0.7106 -0.7106 -0.7036 1348.1334 -229.8863)" fill="#57E548" cx="722" cy="166.2" rx="15.3" ry="6.1"/>
			<circle fill="#FFFF64" cx="725.1" cy="162.2" r="2.4"/>
			
				<ellipse transform="matrix(0.4869 0.8735 -0.8735 0.4869 518.2607 -540.1044)" fill="#FFFF64" cx="718.8" cy="171.1" rx="1.5" ry="4"/>
		</g>
	</g>
</g>
<text transform="matrix(1.5082 0 0 1 771.2985 74.9)" font-family="'BigNoodleTitling'" font-size="20.4122">cellule infectée</text>
<text transform="matrix(1 0 0 1 684.6613 502.9922)" font-family="'BigNoodleTitling'" font-size="29.4422">x</text>
<g>
	<polyline opacity="0.4" fill="#DDDDDD" enable-background="new    " points="507.1,123.3 54.3,123.3 54.3,127 660,127 660,123.3 
		507.1,123.3 	"/>
	<rect x="55.4" y="175.2" opacity="0.4" fill="#DDDDDD" enable-background="new    " width="604.6" height="3.7"/>
	<rect x="52.2" y="227.2" opacity="0.4" fill="#DDDDDD" enable-background="new    " width="607.8" height="3.7"/>
	<rect x="51.1" y="279.1" opacity="0.4" fill="#DDDDDD" enable-background="new    " width="608.9" height="3.7"/>
	<rect x="51.3" y="331.1" opacity="0.4" fill="#DDDDDD" enable-background="new    " width="608.7" height="3.7"/>
	<rect x="51.3" y="383" opacity="0.4" fill="#DDDDDD" enable-background="new    " width="608.7" height="3.7"/>
	<rect x="51.3" y="435" opacity="0.4" fill="#DDDDDD" enable-background="new    " width="608.7" height="3.7"/>
	<rect x="115.7" y="73" opacity="0.4" fill="#DDDDDD" enable-background="new    " width="3.9" height="415.4"/>
	<rect x="51.5" y="73" width="5.7" height="414.7"/>
	<g>
		<circle fill="#F2F2F2" cx="117.5" cy="503" r="10.1"/>
		<text transform="matrix(1.5638 0 0 1 114.6759 508.3975)" font-family="'BigNoodleTitling'" font-size="14.5737">1</text>
	</g>
	<g>
		<circle fill="#F2F2F2" cx="32.1" cy="438.5" r="10.1"/>
		<text transform="matrix(1.5638 0 0 1 28.3866 443.7559)" font-family="'BigNoodleTitling'" font-size="14.5737">2</text>
	</g>
	<g>
		<circle fill="#F2F2F2" cx="32.1" cy="385.8" r="10.1"/>
		<text transform="matrix(1.5638 0 0 1 27.1749 391.0439)" font-family="'BigNoodleTitling'" font-size="14.5737">4</text>
	</g>
	<g>
		<circle fill="#F2F2F2" cx="33" cy="333" r="10.1"/>
		<text transform="matrix(1.5638 0 0 1 28.9926 337.877)" font-family="'BigNoodleTitling'" font-size="14.5737">6</text>
	</g>
	<g>
		<circle fill="#F2F2F2" cx="33" cy="281.2" r="10.1"/>
		<text transform="matrix(1.5638 0 0 1 28.9932 286.5273)" font-family="'BigNoodleTitling'" font-size="14.5737">8</text>
	</g>
	<g>
		<circle fill="#F2F2F2" cx="33" cy="229.4" r="10.1"/>
		<text transform="matrix(1.5638 0 0 1 25.9629 234.7246)" font-family="'BigNoodleTitling'" font-size="14.5737">10</text>
	</g>
	<g>
		<circle fill="#F2F2F2" cx="33" cy="177.6" r="10.1"/>
		<text transform="matrix(1.5638 0 0 1 25.9629 182.9214)" font-family="'BigNoodleTitling'" font-size="14.5737">12</text>
	</g>
	<g>
		<circle fill="#F2F2F2" cx="33" cy="124.9" r="10.1"/>
		<text transform="matrix(1.5638 0 0 1 25.9629 130.209)" font-family="'BigNoodleTitling'" font-size="14.5737">14</text>
	</g>
	<rect x="182.9" y="73" opacity="0.4" fill="#DDDDDD" enable-background="new    " width="3.5" height="415.4"/>
	<rect x="250.8" y="73.7" opacity="0.4" fill="#DDDDDD" enable-background="new    " width="3.9" height="413.5"/>
	<rect x="318.3" y="73.7" opacity="0.4" fill="#DDDDDD" enable-background="new    " width="3.9" height="413.5"/>
	<rect x="385.8" y="73.7" opacity="0.4" fill="#DDDDDD" enable-background="new    " width="3.9" height="413.5"/>
	<rect x="453.3" y="73.7" opacity="0.4" fill="#DDDDDD" enable-background="new    " width="3.9" height="413.5"/>
	<rect x="520.9" y="74.9" opacity="0.4" fill="#DDDDDD" enable-background="new    " width="3.9" height="413.5"/>
	<rect x="588.4" y="74.9" opacity="0.4" fill="#DDDDDD" enable-background="new    " width="3.9" height="413.5"/>
	<rect x="54" y="482.3" width="606" height="5.5"/>
	<g>
		<circle fill="#F2F2F2" cx="183" cy="503" r="10.1"/>
		<text transform="matrix(1.5638 0 0 1 180.1113 508.3975)" font-family="'BigNoodleTitling'" font-size="14.5737">2</text>
	</g>
	<circle fill="#F2F2F2" cx="251.1" cy="503" r="10.1"/>
	<text transform="matrix(1.5638 0 0 1 248.2738 508.3975)" font-family="'BigNoodleTitling'" font-size="14.5737">3</text>
	<g>
		<circle fill="#F2F2F2" cx="320.2" cy="503" r="10.1"/>
		<text transform="matrix(1.5638 0 0 1 317.3449 508.3975)" font-family="'BigNoodleTitling'" font-size="14.5737">4</text>
	</g>
	<g>
		<circle fill="#F2F2F2" cx="387.5" cy="503" r="10.1"/>
		<text transform="matrix(1.5638 0 0 1 384.5985 508.3975)" font-family="'BigNoodleTitling'" font-size="14.5737">5 </text>
	</g>
	<g>
		<circle fill="#F2F2F2" cx="455.6" cy="503" r="10.1"/>
		<text transform="matrix(1.5638 0 0 1 452.7607 508.3975)" font-family="'BigNoodleTitling'" font-size="14.5737">6 </text>
	</g>
	<g>
		<circle fill="#F2F2F2" cx="522.9" cy="503" r="10.1"/>
		<text transform="matrix(1.5638 0 0 1 520.0148 508.3975)" font-family="'BigNoodleTitling'" font-size="14.5737">7</text>
	</g>
	<g>
		<circle fill="#F2F2F2" cx="590.1" cy="503" r="10.1"/>
		<text transform="matrix(1.5638 0 0 1 585.4503 508.3975)" font-family="'BigNoodleTitling'" font-size="14.5737">8</text>
	</g>
	<g>
		<g>
			<path fill="#FF9900" d="M136.8,290.7c-0.8-0.9-1.9-1.7-3.2-1.7h-0.3h-13.4h-0.3c-2.3,0-4.1,2.4-4.3,4.6l-0.9,1.4h-8.2
				c-2.4,0-4.3,1.6-4.3,4.4v5.9v0.1v0.4v4.2l-3.4,7.8c-0.9,2.2,0.1,4.7,2.2,5.6l2.9,1.1"/>
			<path fill="#FF9900" d="M101.2,323.3c0.8,0.9,1.9,1.7,3.2,1.7h0.3H118h0.3c2.3,0,4.1-2.4,4.3-4.6l0.9-1.4h8.2
				c2.4,0,5.3-1.4,5.3-4.3v-5.9v-0.1v-0.4v-4.2l2.9-7.8c0.9-2.2-0.3-4.7-2.5-5.6l-3-1.2"/>
		</g>
		<g>
			
				<ellipse transform="matrix(-0.7036 0.7106 -0.7106 -0.7036 418.1231 439.0484)" fill="#57E548" cx="117.5" cy="306.7" rx="14.5" ry="5.8"/>
			<circle fill="#FFFF64" cx="120.4" cy="302.8" r="2.3"/>
			
				<ellipse transform="matrix(0.4869 0.8735 -0.8735 0.4869 330.5564 59.6909)" fill="#FFFF64" cx="114.5" cy="311.2" rx="1.4" ry="3.8"/>
		</g>
	</g>
	<g>
		<g>
			<path fill="#FF9900" d="M135.9,161.7c-0.8-0.9-1.9-1.7-3.2-1.7h-0.3H119h-0.3c-2.3,0-4.1,2.4-4.3,4.6l-0.9,1.4h-8.2
				c-2.4,0-4.4,1.5-4.4,4.3v5.9v0.1v0.4v4.2l-3.3,7.8c-0.9,2.2,0.1,4.7,2.2,5.6l2.9,1.1"/>
			<path fill="#FF9900" d="M100.3,194.3c0.8,0.9,1.9,1.7,3.2,1.7h0.3h13.4h0.3c2.3,0,4.1-2.4,4.3-4.6l0.9-1.4h8.2
				c2.4,0,5.2-1.5,5.2-4.3v-5.9v-0.1v-0.4V175l2.9-7.8c0.9-2.2-0.3-4.7-2.5-5.6l-3-1.1"/>
		</g>
		<g>
			
				<ellipse transform="matrix(-0.7036 0.7106 -0.7106 -0.7036 324.8134 219.9074)" fill="#57E548" cx="116.5" cy="177.7" rx="14.5" ry="5.8"/>
			<circle fill="#FFFF64" cx="119.5" cy="173.7" r="2.3"/>
			
				<ellipse transform="matrix(0.4869 0.8735 -0.8735 0.4869 217.4165 -5.728)" fill="#FFFF64" cx="113.6" cy="182.2" rx="1.4" ry="3.8"/>
		</g>
	</g>
	<g>
		<g>
			<path fill="#FF9900" d="M200.4,342.6c-0.8-0.9-1.9-1.6-3.2-1.6h-0.3h-13.4h-0.3c-2.3,0-4.1,2.4-4.3,4.6L178,347h-8.2
				c-2.4,0-3.9,1.4-3.9,4.2v5.9v0.1v0.4v4.2l-3.6,7.8c-0.9,2.2,0,4.7,2.1,5.6l2.8,1.2"/>
			<path fill="#FF9900" d="M164.8,375.2c0.8,0.9,1.9,1.8,3.2,1.8h0.3h13.4h0.3c2.3,0,4.1-2.4,4.3-4.6l0.9-1.4h8.2
				c2.4,0,4.7-1.6,4.7-4.5v-5.9v-0.1v-0.4v-4.2l3.2-7.8c0.9-2.2-0.2-4.7-2.3-5.6l-2.9-1.1"/>
		</g>
		<g>
			
				<ellipse transform="matrix(-0.7036 0.7106 -0.7106 -0.7036 563.1772 482.0394)" fill="#57E548" cx="181.1" cy="358.5" rx="14.5" ry="5.8"/>
			<circle fill="#FFFF64" cx="184" cy="354.6" r="2.3"/>
			
				<ellipse transform="matrix(0.4869 0.8735 -0.8735 0.4869 408.452 30.6888)" fill="#FFFF64" cx="178.1" cy="363" rx="1.4" ry="3.8"/>
		</g>
	</g>
	<g>
		<g>
			<path fill="#FF9900" d="M201.3,238.8c-0.8-0.9-1.9-1.8-3.2-1.8h-0.3h-13.4h-0.3c-2.3,0-4.1,2.4-4.3,4.6L179,243h-8.2
				c-2.4,0-3.8,1.8-3.8,4.6v5.9v0.1v0.4v4.2l-3.6,7.8c-0.9,2.2-0.1,4.7,2.1,5.6l2.8,1.1"/>
			<path fill="#FF9900" d="M165.7,271.4c0.8,0.9,1.9,1.6,3.2,1.6h0.3h13.4h0.3c2.3,0,4.1-2.4,4.3-4.6l0.9-1.4h8.2
				c2.4,0,4.8-1.3,4.8-4.1V257l0,0v-0.4v-4.2l3.1-7.8c0.9-2.2-0.2-4.7-2.3-5.6l-2.9-1.2"/>
		</g>
		<g>
			
				<ellipse transform="matrix(-0.7036 0.7106 -0.7106 -0.7036 491.1153 304.8812)" fill="#57E548" cx="182" cy="254.9" rx="14.5" ry="5.8"/>
			<circle fill="#FFFF64" cx="184.9" cy="251" r="2.3"/>
			
				<ellipse transform="matrix(0.4869 0.8735 -0.8735 0.4869 318.4183 -23.2788)" fill="#FFFF64" cx="179" cy="259.4" rx="1.4" ry="3.8"/>
		</g>
	</g>
	<g>
		<g>
			<path fill="#FF9900" d="M203.1,186.5c-0.8-0.9-1.9-1.5-3.2-1.5h-0.3h-13.4H186c-2.3,0-4.1,1.9-4.3,4.1l-0.9,0.9h-8.2
				c-2.4,0-4.6,2.1-4.6,4.9v5.9v0.1v0.4v4.2l-3.2,7.8c-0.9,2.2,0.1,4.7,2.3,5.6l2.9,1.3"/>
			<path fill="#FF9900" d="M167.5,218.6c0.8,0.9,1.9,1.4,3.2,1.4h0.3h13.4h0.3c2.3,0,4.1-1.9,4.3-4.1l0.9-0.9h8.2c2.4,0,5-2,5-4.8
				v-5.9v-0.1v-0.4v-4.2l3-7.8c0.9-2.2-0.2-4.7-2.4-5.6l-2.9-1.3"/>
		</g>
		<g>
			
				<ellipse transform="matrix(-0.7036 0.7106 -0.7106 -0.7036 456.7898 213.7792)" fill="#57E548" cx="183.8" cy="202.2" rx="14.5" ry="5.8"/>
			<circle fill="#FFFF64" cx="186.7" cy="198.3" r="2.3"/>
			
				<ellipse transform="matrix(0.4869 0.8735 -0.8735 0.4869 273.2986 -51.9333)" fill="#FFFF64" cx="180.9" cy="206.6" rx="1.4" ry="3.8"/>
		</g>
	</g>
	<g>
		<g>
			<path fill="#FF9900" d="M270.4,318.8c-0.8-0.9-1.9-1.8-3.2-1.8h-0.3h-13.4h-0.3c-2.3,0-4.1,2.4-4.3,4.6L248,323h-8.2
				c-2.4,0-3.9,1.8-3.9,4.6v5.9v0.1v0.4v4.2l-3.6,7.8c-0.9,2.2,0,4.7,2.1,5.6l2.8,1.1"/>
			<path fill="#FF9900" d="M234.8,351.4c0.8,0.9,1.9,1.6,3.2,1.6h0.3h13.4h0.3c2.3,0,4.1-2.4,4.3-4.6l0.9-1.4h8.2
				c2.4,0,4.7-1.3,4.7-4.1V337v-0.1v-0.4v-4.2l3.2-7.8c0.9-2.2-0.2-4.7-2.3-5.6l-2.9-1.2"/>
		</g>
		<g>
			
				<ellipse transform="matrix(-0.7036 0.7106 -0.7106 -0.7036 665.7613 392.056)" fill="#57E548" cx="251.1" cy="334.9" rx="14.5" ry="5.8"/>
			<circle fill="#FFFF64" cx="254" cy="331" r="2.3"/>
			
				<ellipse transform="matrix(0.4869 0.8735 -0.8735 0.4869 423.6922 -42.5397)" fill="#FFFF64" cx="248.1" cy="339.4" rx="1.4" ry="3.8"/>
		</g>
	</g>
	<g>
		<g>
			<path fill="#FF9900" d="M271.3,214.6c-0.8-0.9-1.9-1.6-3.2-1.6h-0.3h-13.4h-0.3c-2.3,0-4.1,1.9-4.3,4.1L249,218h-8.2
				c-2.4,0-4.8,2.2-4.8,5.1v5.9v0.1v0.4v4.2l-3.1,7.8c-0.9,2.2,0.2,4.7,2.3,5.6l2.9,1.2"/>
			<path fill="#FF9900" d="M235.7,246.7c0.8,0.9,1.9,1.3,3.2,1.3h0.3h13.4h0.3c2.3,0,4.1-1.9,4.3-4.1l0.9-0.9h8.2
				c2.4,0,4.8-1.8,4.8-4.6v-5.9v-0.1V232v-4.2l3.1-7.8c0.9-2.2-0.2-4.7-2.3-5.6l-2.9-1.3"/>
		</g>
		<g>
			
				<ellipse transform="matrix(-0.7036 0.7106 -0.7106 -0.7036 592.8888 213.2651)" fill="#57E548" cx="252" cy="230.3" rx="14.5" ry="5.8"/>
			<circle fill="#FFFF64" cx="254.9" cy="226.5" r="2.3"/>
			
				<ellipse transform="matrix(0.4869 0.8735 -0.8735 0.4869 332.8557 -96.9739)" fill="#FFFF64" cx="249" cy="234.8" rx="1.4" ry="3.8"/>
		</g>
	</g>
	<g>
		<g>
			<path fill="#FF9900" d="M308.6,264.6c-0.8-0.9-1.9-1.6-3.2-1.6h-0.3h-13.4h-0.3c-2.3,0-4.1,1.9-4.3,4.1l-0.9,0.9H278
				c-2.4,0-4,2.2-4,5v5.9v0.1v0.4v4.2l-3.5,7.8c-0.9,2.2,0,4.7,2.2,5.6l2.8,1.2"/>
			<path fill="#FF9900" d="M272.9,296.6c0.8,0.9,1.9,1.4,3.2,1.4h0.3h13.4h0.3c2.3,0,4.1-1.9,4.3-4.1l0.9-0.9h8.2
				c2.4,0,4.6-1.8,4.6-4.6v-5.9v-0.1V282v-4.2l3.2-7.8c0.9-2.2-0.1-4.7-2.3-5.6l-2.9-1.3"/>
		</g>
		<g>
			
				<ellipse transform="matrix(-0.7036 0.7106 -0.7106 -0.7036 691.9391 272.1305)" fill="#57E548" cx="289.2" cy="280.4" rx="14.5" ry="5.8"/>
			<circle fill="#FFFF64" cx="292.2" cy="276.4" r="2.3"/>
			
				<ellipse transform="matrix(0.4869 0.8735 -0.8735 0.4869 395.7214 -103.8297)" fill="#FFFF64" cx="286.2" cy="284.9" rx="1.4" ry="3.8"/>
		</g>
	</g>
	<g>
		<g>
			<path fill="#911403" d="M540.9,420.6c-0.8-0.9-1.9-1.6-3.2-1.6h-0.3H524h-0.3c-2.3,0-4.2,2.4-4.3,4.6l-0.9,1.4h-8.3
				c-2.4,0-4.2,1.4-4.2,4.3v5.9v0.1v0.4v4.3l-3.5,7.8c-0.9,2.2,0,4.7,2.2,5.7l2.9,1.2"/>
			<path fill="#911403" d="M505,453.3c0.8,0.9,1.9,1.7,3.2,1.7h0.3H522h0.3c2.3,0,4.2-1.9,4.3-4.1l0.9-0.9h8.3
				c2.4,0,4.3-2.5,4.3-5.3v-5.9v-0.1v-0.4V434l3.4-7.8c0.9-2.2,0-4.7-2.2-5.7l-2.9-1.2"/>
		</g>
		<g>
			
				<ellipse transform="matrix(-0.7036 0.7106 -0.7106 -0.7036 1198.6029 373.2553)" fill="#EF5C1B" cx="521.5" cy="436.6" rx="14.6" ry="5.9"/>
			<circle fill="#FFFF64" cx="524.4" cy="432.7" r="2.3"/>
			
				<ellipse transform="matrix(0.4869 0.8735 -0.8735 0.4869 651.3605 -226.5138)" fill="#FFFF64" cx="518.5" cy="441.1" rx="1.4" ry="3.8"/>
		</g>
	</g>
	<g>
		<g>
			<path fill="#911403" d="M470.9,442.6c-0.8-0.9-1.9-1.6-3.2-1.6h-0.3H454h-0.3c-2.3,0-4.2,2.4-4.3,4.6l-0.9,1.4h-8.3
				c-2.4,0-4.2,1.2-4.2,4.1v5.9v0.1v0.4v4.3l-3.5,7.8c-0.9,2.2,0,4.7,2.2,5.7l2.9,1.2"/>
			<path fill="#911403" d="M435.1,475.2c0.8,0.9,1.9,1.8,3.2,1.8h0.3H452h0.3c2.3,0,4.2-1.9,4.3-4.1l0.9-0.9h8.3
				c2.4,0,4.2-2.7,4.2-5.5v-5.9v-0.1v-0.4v-4.3l3.4-7.8c0.9-2.2,0-4.7-2.2-5.7l-2.9-1.1"/>
		</g>
		<g>
			
				<ellipse transform="matrix(-0.7036 0.7106 -0.7106 -0.7036 1094.9103 460.1814)" fill="#EF5C1B" cx="451.5" cy="458.4" rx="14.6" ry="5.9"/>
			<circle fill="#FFFF64" cx="454.4" cy="454.5" r="2.3"/>
			
				<ellipse transform="matrix(0.4869 0.8735 -0.8735 0.4869 634.5126 -154.1173)" fill="#FFFF64" cx="448.4" cy="463" rx="1.4" ry="3.8"/>
		</g>
	</g>
	<g>
		<g>
			<path fill="#911403" d="M443.6,367.3c-0.8-0.9-1.9-1.3-3.2-1.3h-0.3h-13.4h-0.3c-2.3,0-4.2,1.9-4.3,4.1l-0.9,0.9h-8.3
				c-2.4,0-3.9,1.8-3.9,4.6v5.9v0.1v0.4v4.3l-3.6,7.8c-0.9,2.2,0,4.7,2.1,5.7l2.8,1.3"/>
			<path fill="#911403" d="M407.8,399.5c0.8,0.9,1.9,1.5,3.2,1.5h0.3h13.4h0.3c2.3,0,4.2-1.4,4.3-3.6l0.9-0.4h8.3
				c2.4,0,4.5-3.1,4.5-5.9v-5.9v-0.1v-0.4v-4.3l3.3-7.8c0.9-2.2-0.1-4.7-2.3-5.7l-2.9-1.3"/>
		</g>
		<g>
			
				<ellipse transform="matrix(-0.7036 0.7106 -0.7106 -0.7036 994.7654 350.9469)" fill="#EF5C1B" cx="424.2" cy="382.9" rx="14.6" ry="5.9"/>
			<circle fill="#FFFF64" cx="427.1" cy="379.1" r="2.3"/>
			
				<ellipse transform="matrix(0.4869 0.8735 -0.8735 0.4869 554.6037 -169.0471)" fill="#FFFF64" cx="421.2" cy="387.5" rx="1.4" ry="3.8"/>
		</g>
	</g>
	<g>
		<g>
			<path fill="#911403" d="M398.7,396.3c-0.7-0.9-1.7-1.3-2.9-1.3h-0.3h-12.4h-0.3c-2.1,0-3.8,1.9-3.9,4.1l-0.8,0.9h-7.6
				c-2.2,0-3.5,1.7-3.5,4.5v5.8v0.1v0.4v4.1l-3.4,7.6c-0.9,2.1-0.1,4.6,1.9,5.5l2.6,1.3"/>
			<path fill="#911403" d="M365.8,427.6c0.7,0.9,1.7,1.4,2.9,1.4h0.3h12.4h0.3c2.1,0,3.8-1.4,3.9-3.6l0.8-0.4h7.6c2.2,0,4-2.7,4-5.5
				v-5.8v-0.1v-0.4v-4.1l3.1-7.6c0.9-2.1-0.1-4.6-2.1-5.5l-2.6-1.3"/>
		</g>
		<g>
			<path fill="#EF5C1B" d="M377,407.6c-5.2,5.6-7.7,11.9-5.6,14.1s8.1-0.5,13.3-6.1c5.2-5.6,7.7-11.9,5.6-14.1
				C388.2,399.3,382.2,402,377,407.6z"/>
			<path fill="#FFFF64" d="M381.5,407.4c-0.2,1.2,0.5,2.4,1.6,2.6s2.2-0.5,2.5-1.7c0.2-1.2-0.5-2.4-1.6-2.6S381.7,406.2,381.5,407.4
				z"/>
			<path fill="#FFFF64" d="M375,417.8c0.4,0.7,2,0.4,3.7-0.6s2.8-2.4,2.4-3c-0.4-0.7-2-0.4-3.7,0.6
				C375.8,415.8,374.7,417.2,375,417.8z"/>
		</g>
	</g>
	<g>
		<g>
			<path fill="#911403" d="M340,420.6c-0.8-0.9-1.9-1.6-3.2-1.6h-0.3h-13.4h-0.3c-2.3,0-4.2,2.4-4.3,4.6l-0.9,1.4h-8.3
				c-2.4,0-3.3,1.4-3.3,4.3v5.9v0.1v0.4v4.3l-3.9,7.8c-0.9,2.2-0.2,4.7,2,5.7l2.7,1.2"/>
			<path fill="#911403" d="M304.2,453.3c0.8,0.9,1.9,1.7,3.2,1.7h0.3h13.4h0.3c2.3,0,4.2-1.9,4.3-4.1l0.9-0.9h8.3
				c2.4,0,4.1-2.5,4.1-5.3v-5.9v-0.1v-0.4V434l3.5-7.8c0.9-2.2,0-4.7-2.2-5.7l-2.8-1.2"/>
		</g>
		<g>
			
				<ellipse transform="matrix(-0.7036 0.7106 -0.7106 -0.7036 856.3389 515.9582)" fill="#EF5C1B" cx="320.6" cy="436.6" rx="14.6" ry="5.9"/>
			<circle fill="#FFFF64" cx="323.5" cy="432.7" r="2.3"/>
			
				<ellipse transform="matrix(0.4869 0.8735 -0.8735 0.4869 548.2944 -51.0314)" fill="#FFFF64" cx="317.6" cy="441.2" rx="1.4" ry="3.8"/>
		</g>
	</g>
	<g>
		<g>
			<path fill="#911403" d="M309.5,392.4c-0.7-0.8-1.7-1.4-2.9-1.4h-0.3h-12H294c-2,0-3.7,2-3.8,4l-0.8,1H282c-2.1,0-3.1,1.5-3.1,4
				v5.3v0.1v0.4v3.8l-3.4,7c-0.8,1.9-0.1,4.2,1.8,5.1l2.5,1.1"/>
			<path fill="#911403" d="M277.5,421.5c0.7,0.8,1.7,1.5,2.9,1.5h0.3h12h0.3c2,0,3.7-2,3.8-4l0.8-1h7.4c2.1,0,4.1-1.7,4.1-4.2v-5.3
				v-0.1V408v-3.8l2.9-7c0.8-1.9-0.1-4.2-2-5.1l-2.6-1"/>
		</g>
		<g>
			
				<ellipse transform="matrix(-0.7036 0.7106 -0.7106 -0.7036 786.643 484.9268)" fill="#EF5C1B" cx="292.2" cy="406.5" rx="13" ry="5.2"/>
			<circle fill="#FFFF64" cx="294.8" cy="403.1" r="2"/>
			
				<ellipse transform="matrix(0.4869 0.8735 -0.8735 0.4869 507.2159 -42.186)" fill="#FFFF64" cx="289.5" cy="410.6" rx="1.3" ry="3.4"/>
		</g>
	</g>
	<g>
		<g>
			<path fill="#911403" d="M270,422.6c-0.8-0.9-1.9-1.6-3.2-1.6h-0.3h-13.4h-0.3c-2.3,0-4.2,2.4-4.3,4.6l-0.9,1.4h-8.3
				c-2.4,0-3.3,1.2-3.3,4.1v5.9v0.1v0.4v4.3l-3.9,7.8c-0.9,2.2-0.2,4.7,2,5.7l2.7,1.2"/>
			<path fill="#911403" d="M234.2,455.2c0.8,0.9,1.9,1.8,3.2,1.8h0.3h13.4h0.3c2.3,0,4.2-1.9,4.3-4.1l0.9-0.9h8.3
				c2.4,0,4.1-2.7,4.1-5.5v-5.9v-0.1v-0.4v-4.3l3.5-7.8c0.9-2.2,0-4.7-2.2-5.7l-2.8-1.1"/>
		</g>
		<g>
			
				<ellipse transform="matrix(-0.7036 0.7106 -0.7106 -0.7036 738.433 568.8313)" fill="#EF5C1B" cx="250.6" cy="438.4" rx="14.6" ry="5.9"/>
			<circle fill="#FFFF64" cx="253.6" cy="434.5" r="2.3"/>
			
				<ellipse transform="matrix(0.4869 0.8735 -0.8735 0.4869 513.991 11.0042)" fill="#FFFF64" cx="247.6" cy="443" rx="1.4" ry="3.8"/>
		</g>
	</g>
	<text transform="matrix(0.9195 0 0 1 53.8389 54.3979)" font-family="'BigNoodleTitling'" font-size="30.4182">Y</text>
</g>
<text transform="matrix(2.0843 0 0 1 771.2986 171.4)" font-family="'BigNoodleTitling'" font-size="16.4142">cellule saine</text>
</svg>
